<svg width="14" height="14" viewBox="0 0 14 14" fill="none" xmlns="http://www.w3.org/2000/svg">
<path d="M12.1504 4.33984L6.99957 7.32067L1.88374 4.35733" stroke="#6B6C70" stroke-width="0.9" stroke-linecap="round" stroke-linejoin="round"/>
<path d="M7 12.6053V7.31445" stroke="#6B6C70" stroke-width="0.9" stroke-linecap="round" stroke-linejoin="round"/>
<path d="M8.20715 1.44602L11.3221 3.17853C12.028 3.56937 12.6055 4.54936 12.6055 5.35436V8.6502C12.6055 9.4552 12.028 10.4352 11.3221 10.826L8.20715 12.5585C7.54215 12.926 6.45132 12.926 5.78632 12.5585L2.6713 10.826C1.96547 10.4352 1.38798 9.4552 1.38798 8.6502V5.35436C1.38798 4.54936 1.96547 3.56937 2.6713 3.17853L5.78632 1.44602C6.45715 1.07268 7.54215 1.07268 8.20715 1.44602Z" stroke="#6B6C70" stroke-width="0.9" stroke-linecap="round" stroke-linejoin="round"/>
<path d="M4.08331 7.72425V5.58927L9.61914 2.39258" stroke="#6B6C70" stroke-width="0.9" stroke-linecap="round" stroke-linejoin="round"/>
</svg>
