<svg width="14" height="15" viewBox="0 0 14 15" fill="none" xmlns="http://www.w3.org/2000/svg">
<path d="M6.70866 13.1878C3.41283 13.1878 0.729492 10.5045 0.729492 7.20866C0.729492 3.91283 3.41283 1.22949 6.70866 1.22949C10.0045 1.22949 12.6878 3.91283 12.6878 7.20866C12.6878 10.5045 10.0045 13.1878 6.70866 13.1878ZM6.70866 2.10449C3.89116 2.10449 1.60449 4.39699 1.60449 7.20866C1.60449 10.0203 3.89116 12.3128 6.70866 12.3128C9.52616 12.3128 11.8128 10.0203 11.8128 7.20866C11.8128 4.39699 9.52616 2.10449 6.70866 2.10449Z" fill="#6B6C70"/>
<path d="M12.8332 13.7707C12.7223 13.7707 12.6115 13.7298 12.524 13.6423L11.3573 12.4757C11.1882 12.3065 11.1882 12.0265 11.3573 11.8573C11.5265 11.6882 11.8065 11.6882 11.9757 11.8573L13.1423 13.024C13.3115 13.1932 13.3115 13.4732 13.1423 13.6423C13.0548 13.7298 12.944 13.7707 12.8332 13.7707Z" fill="#6B6C70"/>
</svg>
