<svg width="14" height="14" viewBox="0 0 14 14" fill="none" xmlns="http://www.w3.org/2000/svg">
<path d="M6.95936 12.8216C7.78186 12.8216 8.61019 12.5066 9.23436 11.8825L11.8769 9.23998C12.5185 8.59831 12.8569 7.71165 12.816 6.80748L12.676 3.89081C12.6119 2.49665 11.5094 1.39415 10.1094 1.32415L7.19269 1.18415C6.28853 1.14915 5.40186 1.48165 4.76019 2.12331L2.11769 4.76581C0.863526 6.01998 0.863526 8.06748 2.11769 9.32165L4.67853 11.8825C5.30853 12.5066 6.13103 12.8216 6.95936 12.8216ZM11.2585 8.61581L8.61603 11.2583C8.17269 11.7016 7.58353 11.9466 6.95936 11.9466C6.33519 11.9466 5.74603 11.7016 5.30269 11.2583L2.74186 8.69748C2.29853 8.25415 2.05353 7.66498 2.05353 7.04081C2.05353 6.41665 2.29853 5.82748 2.74186 5.38415L5.38436 2.74165C5.85103 2.27498 6.49853 2.02415 7.15186 2.05915L10.0685 2.19915C11.0194 2.23998 11.7602 2.98081 11.8069 3.92581L11.9469 6.84248C11.976 7.50165 11.7252 8.14915 11.2585 8.61581Z" fill="#6B6C70"/>
<path d="M8.45866 7.43815C9.50283 7.43815 10.3545 6.58648 10.3545 5.54232C10.3545 4.49815 9.50283 3.64648 8.45866 3.64648C7.41449 3.64648 6.56283 4.49815 6.56283 5.54232C6.56283 6.58648 7.41449 7.43815 8.45866 7.43815ZM8.45866 4.52148C9.01866 4.52148 9.47949 4.98232 9.47949 5.54232C9.47949 6.10232 9.01866 6.56315 8.45866 6.56315C7.89866 6.56315 7.43783 6.10232 7.43783 5.54232C7.43783 4.98232 7.89866 4.52148 8.45866 4.52148Z" fill="#6B6C70"/>
</svg>
